HIERARCHY
ROOT base
{
	OFFSET 0.0 0.0 0.0
	CHANNELS 6 Xposition Yposition Zposition Zrotation Yrotation Xrotation
	JOINT root
	{
		OFFSET 0 0 0
		CHANNELS 6 Xposition Yposition Zposition Zrotation Yrotation Xrotation
		JOINT chest
		{
			OFFSET 0 4.72302 0
			CHANNELS 3 Zrotation Yrotation Xrotation
			JOINT neck
			{
				OFFSET 0 4.47788 0
				CHANNELS 3 Zrotation Yrotation Xrotation
				End Site
				{
					OFFSET 0.0 0.0 0.0
				}
			}
			JOINT right_shoulder
			{
				OFFSET -0.481 4.87 3.6622
				CHANNELS 3 Zrotation Yrotation Xrotation
				JOINT right_elbow
				{
					OFFSET 0 -5.49576 0
					CHANNELS 3 Zrotation Yrotation Xrotation
					JOINT right_wrist
					{
						OFFSET 0 -5.17894 0
						CHANNELS 3 Zrotation Yrotation Xrotation
						End Site
						{
							OFFSET 0.0 0.0 0.0
						}
					}
				}
			}
			JOINT left_shoulder
			{
				OFFSET -0.481 4.87 -3.6622
				CHANNELS 3 Zrotation Yrotation Xrotation
				JOINT left_elbow
				{
					OFFSET 0 -5.49576 0
					CHANNELS 3 Zrotation Yrotation Xrotation
					JOINT left_wrist
					{
						OFFSET 0 -5.17894 0
						CHANNELS 3 Zrotation Yrotation Xrotation
						End Site
						{
							OFFSET 0.0 0.0 0.0
						}
					}
				}
			}
		}
		JOINT right_hip
		{
			OFFSET 0 0 1.69774
			CHANNELS 3 Zrotation Yrotation Xrotation
			JOINT right_knee
			{
				OFFSET 0 -8.43092 0
				CHANNELS 3 Zrotation Yrotation Xrotation
				JOINT right_ankle
				{
					OFFSET 0 -8.1974 0
					CHANNELS 3 Zrotation Yrotation Xrotation
					End Site
					{
						OFFSET 0.0 0.0 0.0
					}
				}
			}
		}
		JOINT left_hip
		{
			OFFSET 0 0 -1.69774
			CHANNELS 3 Zrotation Yrotation Xrotation
			JOINT left_knee
			{
				OFFSET 0 -8.43092 0
				CHANNELS 3 Zrotation Yrotation Xrotation
				JOINT left_ankle
				{
					OFFSET 0 -8.1974 0
					CHANNELS 3 Zrotation Yrotation Xrotation
					End Site
					{
						OFFSET 0.0 0.0 0.0
					}
				}
			}
		}
	}
	JOINT red_arrow
	{
		OFFSET 0 0 0
		CHANNELS 3 Zrotation Yrotation Xrotation
		End Site
		{
			OFFSET 0.0 0.0 0.0
		}
	}
	JOINT blue_arrow
	{
		OFFSET 0 0 0
		CHANNELS 3 Zrotation Yrotation Xrotation
		End Site
		{
			OFFSET 0.0 0.0 0.0
		}
	}
}
MOTION
Frames: 17
Frame Time: 0.0333333333333333
0 18.08466 0 0 0 0 0 0 0 0 -90 0 0 0 0 0 0 0 0 0 -90 0 0 0 0 0 0 0 0 90 0 0 0 0 0 0 0 0 0 0 0 0 0 0 0 0 0 0 0 0 0 0 0 0 0 0 0 0 0 0
-0.350703478604555 0 -0.00594433397054673 0 -0.116742647937027 0 0 17.9300832867622 0 -3.76423463443848 -4.84537627254208E-16 2.85396104711803 -1.86955307764983 -0.105832079864463 0.915169606087901 -14.631783596809 -3.16932567165528 1.62313265086737 10.7598657835134 -10.4858003589352 -14.7005329340051 12.2315881430235 0 0 0 0 0 9.38299953272234 -11.2763000908815 15.9063560593303 2.42133770581925 0 0 0 0 0 0.0904749608593902 -1.01272198400469 -2.60605705453369 7.61581960014728E-05 0 0 -1.85241896936279 -9.01329775799073 0.70438456550439 2.57873218024999 -0.773879556963275 -1.64455926512457 8.59500948926484E-05 0 0 -4.28764987908568 7.98405815492942 -0.00744249420241792 0 0 0 0 0 0
-0.660911786556244 0 0.00661436319351196 0 -0.0387477290575006 0 0 17.8792755842209 0 -5.01835396973193 1.47622543776891 2.14368594119487 -6.51466719265119 -0.581119791670411 1.97104672332287 -13.486704079428 -3.85322802015132 2.45669844177915 7.84631644009472 -10.7331540034786 -30.18449281993 7.53947272569366 0 0 0 0 0 -0.813202580886114 -16.4120375512342 29.1050458330846 -3.64237293107822E-05 0 0 0 0 0 2.31025939148835 0.254683040381005 -1.87150413791735 0.000466013981169168 0 0 -1.73368060123416 -11.8513504449968 0.52669816338692 7.18433584453752 2.32272588310011 -1.3974925806511 0.000444380636799859 0 0 1.04426883005217 5.83389710424378 -0.7480297975983 0 0 0 0 0 0
-1.13577145636082 0 0.00821391064673662 0 0.113609914527897 0 0 17.6913623094559 0 -7.79263814207669 2.86810741916103 1.42216730917515 -11.4774781001422 -1.17724301740087 3.19839913060126 -11.3964165976364 -4.16368055062401 2.79672368629877 4.30355047396305 -13.4714621819015 -44.9297305427176 2.36321727829409 0 0 0 0 0 -12.7883990843627 -14.3159201967089 40.3215614099229 -3.20624542106976E-06 0 0 0 0 0 6.33493751751772 -1.19477288606609 -1.36112636780329 0.000443642339374316 0 0 1.22274406778571 -11.7513477463683 -0.326886104304139 15.2251293069001 6.36153531477772 -1.84840662360049 7.19676624402421E-05 0 0 6.12745152309284 4.58093036742462 -1.89066657218792 0 0 0 0 0 0
-1.83013384640217 0 0.0681540881283581 0 0.278314205436168 0 0 17.6301295757294 0 -12.0991473180893 3.06000016712389 0.0894518934330378 -17.8113276134121 -0.996586862904952 4.25279492961706 -8.26288959480997 -3.72639022731594 3.13382580698103 0.831741819815875 -20.7552116672892 -54.6155386207005 -0.000272264788919163 0 0 0 0 0 -21.0767573979141 -6.42675901351044 46.2545414745286 -0.153514384630068 0 0 0 0 0 15.5267682062054 -4.13784567690879 -0.39728716698743 -5.21494249263218 0 0 1.92647014264587 -9.19732848762293 -0.577197746726541 26.1363763932741 11.7452145595116 -1.3132868977118 0.00121032773865494 0 0 4.47075146570696 2.99932076353396 -1.6905131636412 0 0 0 0 0 0
-2.55658812522888 0 0.0823799300938845 0 0.428219449181547 0 0 17.5039021134377 0 -16.080818631658 2.7369279977864 -0.336328722270903 -24.0600345096124 -1.29523784575338 3.95088531757625 -5.91731398631588 -2.95774355035258 3.52117485114417 -2.34666567737751 -29.9510287719358 -58.7290820461188 -1.49332528115427E-06 0 0 0 0 0 -26.614459426444 5.46538995439186 47.2189624873285 -1.96785943927433E-05 0 0 0 0 0 27.7293610044006 -5.78204712864727 -1.29526138853686 -16.9827087108193 0 0 3.91836224698317 -4.65692225606931 -0.207268901657 39.28433647613 14.6083301416393 -0.31213411458376 -6.18889843997202 0 0 -4.102231301918 0.417205958585417 0.376826354936096 0 0 0 0 0 0
-3.14146385788918 0 0.0737768104299903 0 0.552643984489962 0 0 17.1799054741859 0 -18.7329519675753 2.23896250263664 -0.658728109435543 -29.41220698783 -1.63523879803393 3.56321020524522 -3.27257194868359 -1.69447301287798 3.77993664971878 -5.56603598661381 -39.8624612103135 -57.0110303221295 -1.47055770030023E-06 0 0 0 0 0 -30.5312695537648 19.1638671011352 43.3476678053665 -0.00349380601183683 0 0 0 0 0 40.0135754400755 -4.83170350154295 -2.15890094576253 -32.1011309480621 0 0 5.0231033357289 -1.87893072170919 0.359327376584308 51.3854029573618 13.2642187537672 1.42759592280416 -16.3666649212719 0 0 -14.5784737223592 -1.45675804855007 2.28681153392656 0 0 0 0 0 0
-3.54335708022118 0 0.0203747686930001 0 0.631847216664167 0 0 16.611425113678 0 -20.2144607015916 1.41220950975504 -0.63781646356543 -32.8161290614812 -2.04689552379817 3.05134632972104 0.382945895837371 -0.336969789581567 3.03061348657746 -11.1893331893593 -48.4570037780105 -49.2018997447518 -3.62179207825655E-08 0 0 0 0 0 -34.6537709799287 33.4972099909955 36.6537833434575 -4.60291501945397E-07 0 0 0 0 0 51.8460591268129 -1.55683758561722 -2.23868002484666 -47.9412651239542 0 0 6.73465972928859 -1.5149698175427 -1.21058143845636 60.41406996101 9.28274981829352 2.66387210993031 -30.0527162348402 0 0 -21.0903663411895 -2.18961568115527 3.37822378735398 0 0 0 0 0 0
-3.8105807363987 0 -0.0793650994077325 0 0.636092520369214 0 0 15.8638530135155 0 -21.5777977377206 0.0750079949142057 -0.53384341568746 -33.7372198004628 -2.29642637097073 3.05535996257388 4.71386660335101 0.437897014324999 1.6027185894952 -19.8431357709358 -51.1939374658094 -34.831233963067 -0.049944981238298 0 0 0 0 0 -38.1548098685769 46.0270307203889 27.8455679500611 -0.100185514900545 0 0 0 0 0 63.3466741270444 1.44757829139598 -1.56232043666299 -61.5181068353358 0 0 12.1947375290177 -1.42017821015782 -4.77905671475621 65.8216792628891 4.86822466043885 3.27042242270793 -41.3992860312539 0 0 -16.4080238420599 -3.01614312480182 2.20368438843668 0 0 0 0 0 0
-3.93539374470711 0 -0.202101520448923 0 0.551453640648939 0 0 14.9630073308945 0 -21.6898955954296 -1.49433248904933 -0.385543523997263 -33.5203315747521 -2.25208453753038 3.57713810289562 8.30272454604959 0.905515826934338 -0.246948654058342 -25.5842433613192 -49.9350462469702 -22.0576095733988 4.4025767145117E-07 0 0 0 0 0 -38.791879036777 57.9916489855514 19.3078680351056 -1.60777659992255E-05 0 0 0 0 0 71.4879247320791 3.64304122430691 -0.729460721208718 -71.4013359228309 0 0 15.1204012722526 -0.769085777390932 -6.7723781722754 71.4986917815365 2.81875060325156 3.99810806791228 -52.1198006883441 0 0 -3.91843414972977 -3.44758385610035 0.855085933342709 0 0 0 0 0 0
-4.04183281064033 0 -0.328782302513719 0 0.369631994901054 0 0 14.0526403903961 0 -21.8057998430349 -3.20796380079951 0.164203866173783 -31.8998409768467 -1.63216350694179 3.86811036301496 11.8752654382601 1.44852373188073 -2.0331496856826 -25.8862039011583 -46.3617766942023 -14.1976976413994 -5.23321941298689E-05 0 0 0 0 0 -32.7712079314499 64.960798158898 14.2491804340646 -4.95877004415655E-08 0 0 0 0 0 76.9692041106612 4.45614616992699 -0.17086076204585 -74.9618042541318 0 0 17.5955916101197 0.156892159208287 -8.57712318035541 76.9685704417414 1.5828237147921 4.26298611394941 -61.4417453204151 0 0 5.24721379016984 -1.10577745676762 -0.079296460305415 0 0 0 0 0 0
-4.09435251355171 0 -0.362135389074683 0 0.166544142646952 0 0 13.2692301630974 0 -20.7234605711698 -3.60969309829898 0.628031261060963 -28.3847012393751 -1.20796057121728 3.67691592209571 13.2988457971393 2.3920481342592 -3.31631667121184 -20.258939984526 -40.9414924304884 -11.4785631875257 -0.000303687765385605 0 0 0 0 0 -14.9157496148656 65.6164812358228 19.3284424640772 -1.48929117755182E-05 0 0 0 0 0 77.8863286909899 5.15457454197411 -0.699509979414232 -75.7080775530366 0 0 18.519549296584 -0.605845521998632 5.49673512070315 81.2048623965346 1.43290617702273 4.42716597086925 -69.6952571209993 0 0 9.24777080892949 -0.486902507311044 -0.244172713120647 0 0 0 0 0 0
-4.05282774567604 0 -0.338512907549739 0 -0.0505767878736782 0 0 12.9729771375656 0 -15.659976638921 -3.97266855059961 0.32792845782619 -25.1865984672382 -1.03053695028492 2.78034472317129 13.0632486627822 4.04673833673966 -3.70032355939832 -3.99192979693543 -33.8551445375255 -14.3979084774191 -1.02341647394082E-05 0 0 0 0 0 9.26514111895133 58.7682002575104 27.7864265518071 -5.6943740106062E-07 0 0 0 0 0 74.8031649977743 3.75107090844031 -1.37134365809585 -78.8968196689488 0 0 19.820907590261 1.38536158713433 4.6722430447312 78.159930246455 1.07751711171446 4.83987933841293 -73.1495501616524 0 0 10.668584981549 -0.184915864174456 -0.517162050580024 0 0 0 0 0 0
-4.2867804735899 0 -0.33661844143644 0 -0.237474244301954 0 0 13.0444972634315 0 -11.6039582419461 -3.47865307027943 -0.295731299764713 -17.2218187767771 -0.764062756681016 2.05350955646605 12.6042307172128 5.57545082753242 -3.07966438177399 13.4342798886942 -17.9621521086178 -15.0262076738677 9.80300510059871 0 0 0 0 0 24.2360818455247 37.6673214153552 26.2523916781286 4.99371565362323 0 0 0 0 0 70.8695016389631 0.475909481790021 -3.70370548719252 -77.2476431730925 0 0 18.1075078482903 4.6947524938513 3.29419253628528 73.9859555152928 1.09804849638538 4.86781732663844 -71.1770393406769 0 0 8.8545190417454 -0.60324739856869 -0.289177696107542 0 0 0 0 0 0
-4.53460515290499 0 -0.320498048514128 0 -0.350678555151846 0 0 13.0472241640091 0 -3.79693369499424 -2.1461651694283 -1.40593413311894 -12.3518083286962 -0.788622621726747 1.570526615596 12.8746690515081 6.2266009391188 -1.16459931528941 36.7035355691987 4.68906136809447 -10.5819181390298 22.5895409910438 0 0 0 0 0 39.8312220684567 10.7203897260008 19.1313708269007 16.1728822092349 0 0 0 0 0 63.6023331696406 -3.10433257010267 -6.14987904645841 -76.2104516268694 0 0 16.6160434523718 7.44524074346755 1.96943396394193 66.5791157236113 0.525329798416043 4.45653065307641 -69.7411286714651 0 0 7.03444254849461 -1.17993541667462 -0.0186044014489411 0 0 0 0 0 0
-4.49144036918879 0 -0.270321038365364 0 -0.331906941208002 0 0 13.2109133839607 0 6.97661461632961 0.354019949130021 -2.61275170005141 -11.9886534991603 -0.858983020759989 0.686295437147399 16.2431262155371 4.71374671248863 2.60079476946919 66.5269286654831 24.6070934007891 -3.91242263395986 30.6771526193303 0 0 0 0 0 62.245120769823 -13.7757242962165 8.81831716433846 31.2518413210006 0 0 0 0 0 51.1511295487596 -3.9224797847984 -6.02810739454724 -74.6498353637915 0 0 16.6418154303916 5.65790356038352 2.50229827170245 54.8483142606848 -0.610297401204435 3.84769044484379 -68.2148204485882 0 0 6.43064450441486 -2.19659605639673 0.29276171675087 0 0 0 0 0 0
-4.04113186001778 0 -0.294264170527458 0 -0.187908298863567 0 0 13.9676538109779 0 16.6564992281282 2.6213374271674 -3.45775960734442 -7.91392946744196 -2.46889210591751 1.14465731964885 14.9796470770238 4.11844305827051 3.44590838562767 91.5109842258687 41.1160775225866 -2.89351307276675 36.7358241112659 0 0 0 0 0 83.8225274526817 -30.4813004289922 4.14023890580799 55.3552237321387 0 0 0 0 0 37.0841130169703 -3.68180025875283 -4.56176262963097 -70.7510267817648 0 0 10.0404832141723 3.12159607332022 3.42860337007853 39.4907399667607 -1.38994234466444 3.88702362974205 -62.3944201058485 0 0 6.23625543361738 -3.19749295206771 0.758668322942915 0 0 0 0 0 0
